<svg xmlns="http://www.w3.org/2000/svg" width="73" height="77"><g fill="none"><path fill="#43A160" stroke="#43A160" d="M22.962 8H11.038C10.465 8 10 8.448 10 9s.465 1 1.038 1h11.924C23.535 10 24 9.552 24 9s-.465-1-1.038-1zm0 5H11.038c-.573 0-1.038.448-1.038 1s.465 1 1.038 1h11.924c.573 0 1.038-.448 1.038-1s-.465-1-1.038-1z"/><path fill="#1E2548" stroke="#1E2548" d="M69.26 43.231h-.08v-2.896c0-1.5-1.232-2.722-2.745-2.722h-27.66l-.209-.722c-.489-1.696-2.074-2.882-3.854-2.884L24.4 34h-.003a4.378 4.378 0 00-3.103 1.274 4.306 4.306 0 00-1.288 3.079L20 72.54c0 1.897 1.542 3.46 3.437 3.46H69.33c.726 0 1.36-.28 1.873-.79A2.665 2.665 0 0072 73.303V45.947c0-1.497-1.229-2.716-2.74-2.716zm-2.825-3.41c.286 0 .52.23.52.514v2.896H40.477a.113.113 0 01-.108-.08l-.96-3.33h27.025zm3.34 33.482a.493.493 0 01-.495.49s0 0 0 0l-45.838-.02h-.005a1.224 1.224 0 01-1.212-1.233l.007-34.187a2.158 2.158 0 012.165-2.146h.001l10.313.007a1.79 1.79 0 011.715 1.284l1.804 6.259c.285.99 1.21 1.68 2.248 1.68H69.26c.283 0 .513.23.513.51v27.356h0z"/><path fill="#1E2548" stroke="#1E2548" d="M17.693 73.803h-10.7a3.8 3.8 0 01-3.795-3.794V6.991a3.8 3.8 0 013.795-3.794H42.81c.148 0 .293.015.436.04v7.52a5.999 5.999 0 005.993 5.99h7.524c.024.144.039.29.039.437v16.542a1.099 1.099 0 102.198 0V17.184c0-1.283-.5-2.49-1.408-3.397L46.208 2.407A4.776 4.776 0 0042.81 1H6.993A6 6 0 001 6.99v63.02A6 6 0 006.993 76h10.7a1.099 1.099 0 10-.001-2.197zM55.248 14.55h-6.009a3.8 3.8 0 01-3.795-3.794V4.751l9.804 9.8z"/><path fill="#43A160" stroke="#43A160" d="M64.366 52h-9.732c-.9 0-1.634.695-1.634 1.55v3.9c0 .855.733 1.55 1.634 1.55h9.732c.9 0 1.634-.695 1.634-1.55v-3.9c0-.855-.733-1.55-1.634-1.55zm-.44 5.034h-8.853v-3.067h8.854v3.067z"/></g></svg>