<svg xmlns="http://www.w3.org/2000/svg" xmlns:xlink="http://www.w3.org/1999/xlink" width="80" height="80"><defs><path id="a" d="M0 79.891h79.962V0H0z"/></defs><g fill="none" fill-rule="evenodd" transform="matrix(1 0 0 -1 0 80)"><mask id="b" fill="#fff"><use xlink:href="#a"/></mask><g fill-rule="nonzero" mask="url(#b)"><path fill="#43A160" d="M46.541 77.407c-7.93 0-14.38-6.47-14.38-14.421 0-7.952 6.45-14.422 14.38-14.422 7.93 0 14.38 6.47 14.38 14.422 0 7.952-6.45 14.421-14.38 14.421m0-31.326c-9.294 0-16.855 7.584-16.855 16.905 0 9.32 7.561 16.904 16.855 16.904s16.856-7.583 16.856-16.904S55.835 46.08 46.541 46.08"/><path fill="#1E2548" stroke="#1E2548" d="M10.095 25.652c.516.516 1.306.61 1.934.22.27-.165-.506.543 13.528-13.51.624-.626.59-1.624.008-2.208l-6.454-6.378L3.764 19.284l6.331 6.368zm19.578 10.394c2.393 0 4.705-.483 6.876-1.435.198-.087.41-.132.626-.132h17.736a3.131 3.131 0 000-6.265H42.168a1.564 1.564 0 01-1.561-1.566c0-.865.7-1.566 1.561-1.566h12.743c3.445 0 6.247 2.81 6.247 6.265 0 .275-.02.548-.055.819 8.915 9.19 10.172 10.481 10.226 10.546a3.13 3.13 0 004.404.373 3.146 3.146 0 00.366-4.421L62.091 21.869a10.862 10.862 0 00-7.57-3.053H33.757c-2.035 0-3.96-.78-5.422-2.196l-1.327-1.284-12.235 12.27c2.86 5.38 8.225 8.44 14.9 8.44M17.988.462A1.558 1.558 0 0120.192.45l7.572 7.48c1.287 1.29 1.678 3.2 1.112 4.861l1.629 1.575a4.648 4.648 0 003.252 1.318h20.762c3.684 0 7.165 1.419 9.805 3.994.108.106-.825-.996 14.164 16.97 2.223 2.638 1.89 6.599-.742 8.83a6.25 6.25 0 01-8.764-.698l-9.216-9.5a6.27 6.27 0 01-4.856 2.332H37.495a20.094 20.094 0 01-7.82 1.566c-7.522 0-14.089-3.483-17.613-10.015a4.656 4.656 0 01-4.177-1.298l-7.43-7.473a1.571 1.571 0 01-.002-2.21L17.989.463z"/><path fill="#43A160" d="M40.358 63.858c-.405.18-.91.336-1.544.48-.636.143-.925.271-1.055.354-.1.062-.134.125-.134.24 0 .177.057.29.198.388.184.129.46.194.817.194.318 0 .583-.04.788-.117a2.9 2.9 0 00.691-.39l.044-.028c.12-.068.219-.117.304-.147a1.02 1.02 0 01.343-.057c.255 0 .49.118.662.332.15.187.23.417.23.664 0 .184-.036.347-.11.487a1.196 1.196 0 01-.298.358c-.69.584-1.583.88-2.654.88a3.96 3.96 0 01-1.607-.318 2.787 2.787 0 01-1.176-.931 2.354 2.354 0 01-.441-1.397c0-.503.124-.932.37-1.276.236-.33.581-.6 1.025-.801.399-.182.916-.343 1.535-.476.653-.147.958-.272 1.099-.351.129-.073.129-.131.129-.183 0-.171-.053-.276-.182-.36-.18-.119-.483-.182-.873-.182-.337 0-.645.041-.916.122-.265.08-.523.21-.768.387l-.031.02c-.232.141-.447.21-.657.21a.846.846 0 01-.663-.332 1.05 1.05 0 01-.23-.664c0-.357.143-.652.413-.857.335-.271.765-.487 1.28-.641a5.588 5.588 0 011.602-.227c.605 0 1.154.102 1.631.305.498.212.893.517 1.175.906.29.4.438.866.438 1.384 0 .49-.133.91-.396 1.25-.246.317-.595.578-1.039.774m5.275-.906l.61 1.379.612-1.379h-1.222zm1.704 3.822a1.111 1.111 0 01-.474.525c-.39.222-.869.222-1.26 0a1.1 1.1 0 01-.47-.52l-2.787-6.003a1.092 1.092 0 01-.103-.46c0-.295.124-.556.358-.754.21-.178.462-.273.726-.273a1.031 1.031 0 01.963.632L44.77 61h2.946l.48-1.076a1.037 1.037 0 01.954-.635c.273 0 .527.096.736.277a.97.97 0 01.349.75c0 .155-.035.31-.105.462l-2.793 5.996zm8.131-1.974c0-.353-.128-.456-.17-.49-.08-.065-.288-.174-.785-.174h-1.226v1.317h1.226c.501 0 .712-.106.792-.169.04-.031.163-.127.163-.484m2.163-3.923l-.92 1.408a3.256 3.256 0 01-.282.374c.238.133.445.3.62.498.39.441.588 1.004.588 1.673 0 .822-.268 1.468-.795 1.921-.506.434-1.229.654-2.147.654h-2.523c-.399 0-.647-.16-.786-.294-.14-.138-.308-.386-.308-.793v-5.921c0-.412.17-.67.314-.813a1.1 1.1 0 01.8-.315c.405 0 .659.174.8.32.14.143.305.4.305.808v1.797h.52a.75.75 0 00.356-.068c.057-.034.15-.112.272-.307l1.344-2.047a1.12 1.12 0 01.945-.513c.277 0 .524.086.734.257a.94.94 0 01.36.75c0 .208-.067.415-.197.611"/></g></g></svg>