<svg xmlns="http://www.w3.org/2000/svg" width="63" height="75"><g fill="none"><path fill="#1E2548" d="M62.425 18.34L44.706.575c-.37-.37-.87-.576-1.394-.576H5.907C2.65 0 0 2.657 0 5.921V69.08C0 72.343 2.65 75 5.906 75h51.188C60.35 75 63 72.343 63 69.079V19.737c0-.525-.209-1.026-.575-1.398zm-4.178 1.397H45.281a1.971 1.971 0 01-1.968-1.974V4.764l14.934 14.973zm-1.153 51.316H5.906a1.972 1.972 0 01-1.968-1.974V5.92c0-1.09.881-1.974 1.968-1.974h33.469v13.816c0 3.265 2.65 5.921 5.906 5.921h13.782V69.08c0 1.09-.883 1.974-1.97 1.974z"/><path fill="#43A160" d="M50.54 63.783L39.08 50.21a15.602 15.602 0 004.119-10.574C43.2 31.013 36.203 24 27.6 24S12 31.013 12 39.636c0 8.624 6.997 15.637 15.6 15.637 3.135 0 6.056-.935 8.506-2.533L47.56 66.308a1.954 1.954 0 002.75.231 1.96 1.96 0 00.23-2.756zM15.9 39.636c0-6.465 5.25-11.727 11.7-11.727 6.45 0 11.7 5.262 11.7 11.727 0 6.466-5.25 11.728-11.7 11.728-6.45 0-11.7-5.262-11.7-11.728z"/></g></svg>