<svg xmlns="http://www.w3.org/2000/svg" width="84" height="75"><g fill="none"><path fill="#43A160" d="M50.81 48.97a1.673 1.673 0 00-.71-.049l-.083-.003c2.135-2.06 3.464-4.934 3.464-8.108V24.625c0-.897-.737-1.625-1.645-1.625H39.652c-5.036 0-9.133 4.048-9.133 9.023v8.786c0 3.175 1.329 6.048 3.464 8.109l-.083.003a1.656 1.656 0 00-.71.049C24.687 49.724 18 56.802 18 65.396v7.979c0 .897.737 1.625 1.645 1.625h44.71c.908 0 1.645-.728 1.645-1.625v-7.98c0-8.593-6.687-15.671-15.19-16.425zM33.808 34.3v-2.277c0-3.183 2.622-5.773 5.844-5.773H50.19v4.349c0 2.197-1.81 3.985-4.034 3.985H33.808v-.285zm0 6.51v-2.976h12.35a7.349 7.349 0 004.033-1.2v4.175c0 4.463-3.675 8.093-8.191 8.093-4.517 0-8.192-3.63-8.192-8.092zm12.56 11.342L42 56.468l-4.369-4.316h8.737zM62.71 71.75H21.29v-4.677h13.422c.908 0 1.645-.727 1.645-1.625 0-.897-.737-1.625-1.645-1.625H21.387c.727-6.04 5.583-10.843 11.693-11.571l7.757 7.663c.32.317.742.476 1.163.476.42 0 .841-.159 1.163-.476l7.757-7.663c6.632.79 11.79 6.382 11.79 13.144v6.354z"/><path fill="#1E2548" d="M42.5 0C38.916 0 36 2.813 36 6.27c0 2.887 2.033 5.323 4.79 6.05v4.03c0 .911.765 1.65 1.71 1.65s1.71-.739 1.71-1.65v-4.03C46.968 11.593 49 9.157 49 6.27 49 2.814 46.084 0 42.5 0zm0 9.241c-1.698 0-3.079-1.332-3.079-2.97 0-1.638 1.381-2.97 3.079-2.97 1.698 0 3.079 1.332 3.079 2.97 0 1.638-1.381 2.97-3.079 2.97zm32.669 3.589c-1.18-1.18-2.75-1.83-4.42-1.83s-3.239.65-4.42 1.831a6.26 6.26 0 00-1.006 7.52l-2.841 2.841A1.643 1.643 0 0063.645 26c.421 0 .842-.16 1.163-.482l2.84-2.84a6.21 6.21 0 003.101.824c1.67 0 3.24-.65 4.42-1.831C76.349 20.49 77 18.92 77 17.25s-.65-3.24-1.831-4.42zm-2.326 6.515a2.965 2.965 0 01-4.187 0 2.964 2.964 0 010-4.188 2.951 2.951 0 012.093-.866c.759 0 1.517.289 2.094.866.56.56.867 1.303.867 2.094 0 .79-.308 1.534-.867 2.094zM77.73 39c-2.887 0-5.323 2.033-6.05 4.79h-4.03c-.911 0-1.65.765-1.65 1.71s.739 1.71 1.65 1.71h4.03c.727 2.757 3.163 4.79 6.05 4.79 3.457 0 6.27-2.916 6.27-6.5S81.187 39 77.73 39zm0 9.579c-1.639 0-2.971-1.381-2.971-3.079 0-1.698 1.332-3.079 2.97-3.079 1.638 0 2.97 1.381 2.97 3.079 0 1.698-1.332 3.079-2.97 3.079zM16.35 43.79h-4.03C11.593 41.032 9.157 39 6.27 39 2.814 39 0 41.916 0 45.5S2.813 52 6.27 52c2.887 0 5.323-2.033 6.05-4.79h4.03c.911 0 1.65-.765 1.65-1.71s-.739-1.71-1.65-1.71zM6.27 48.578c-1.637 0-2.97-1.381-2.97-3.079 0-1.698 1.333-3.079 2.97-3.079 1.639 0 2.971 1.381 2.971 3.079 0 1.698-1.332 3.079-2.97 3.079zm15.248-26.386l-2.84-2.84a6.208 6.208 0 00.823-3.101c0-1.67-.65-3.24-1.831-4.42A6.21 6.21 0 0013.249 10c-1.67 0-3.24.65-4.42 1.831a6.256 6.256 0 000 8.84 6.21 6.21 0 004.42 1.83 6.222 6.222 0 003.102-.822l2.84 2.84a1.647 1.647 0 002.327-.001 1.643 1.643 0 000-2.326zm-6.174-3.848a2.965 2.965 0 01-4.189 0 2.963 2.963 0 010-4.187 2.954 2.954 0 012.094-.866c.759 0 1.517.289 2.094.866.56.56.868 1.303.868 2.094 0 .79-.308 1.534-.867 2.093z"/></g></svg>